<svg xmlns="http://www.w3.org/2000/svg" width="3271.555" height="793.701" viewBox="0 0 2453.67 595.276" xml:space="preserve" color-interpolation-filters="sRGB" style="fill:none;fill-rule:evenodd;font-size:12px;overflow:visible;stroke-linecap:square;stroke-miterlimit:3">
  <style>
    .st1,.st2{stroke:#000;stroke-width:1.5}.st1{stroke-linecap:round;stroke-linejoin:round}.st2,.st3{fill:none}.st3{stroke:none;stroke-linecap:round;stroke-linejoin:round;stroke-width:.75}.st4{fill:#000;font-family:宋体;font-size:1.16666em;font-weight:700}.st5{font-size:1em}.st6,.st8{stroke:#000;stroke-width:1.5}.st8{fill:#fff;stroke-linecap:round;stroke-linejoin:round;stroke-width:.75}.st10,.st11{fill:#c05046;font-family:微软雅黑;font-size:1.5em;font-weight:700}.st11{fill:#9dbb61}.st12,.st14{fill:red;stroke:none;stroke-linecap:round;stroke-linejoin:round;stroke-width:.75}.st14{fill:#fff;stroke:#c05046;stroke-width:1.5}.st15{fill:#fff;stroke:none;stroke-linecap:butt;stroke-width:7.2}.st16{fill:#000;font-family:宋体;font-size:1.00001em;font-weight:700}.st17{fill:#fff;stroke:#9dbb61;stroke-linecap:round;stroke-linejoin:round;stroke-width:1.5}.st18{fill:#fff;stroke:none;stroke-linecap:butt}
  </style>
  <path d="M0 595.28h515.86" class="st1" transform="translate(812.126 -522.567)" id="shape38-1"/>
  <path d="M0 595.28h330.4" class="st1" transform="translate(1384.96 -522.567)" id="shape39-4"/>
  <path d="M0 595.28h407.38" class="st1" transform="translate(628.481 -416.268)" id="shape64-7"/>
  <path d="M0 595.28h196" class="st1" transform="translate(1150.06 -416.268)" id="shape65-10"/>
  <path d="M0 595.28h301.28" class="st1" transform="translate(1539.62 -416.268)" id="shape66-13"/>
  <g id="group75-16" transform="translate(631.819 -354.331)">
    <path d="M1.95 574.01a14.173 14.124-180 1 0 24.45 0 14.17 14.12-180 1 0-24.45 0Z" class="st2" id="shape76-17"/>
    <path d="M0 588.19a14.219 14.17-180 0 0 24.63 0 14.219 14.17-180 0 0-24.63 0Z" class="st2" transform="translate(1.86 -14.18)" id="shape77-19"/>
  </g>
  <g id="group78-21" transform="translate(866.429 -354.331)">
    <path d="M1.95 574.01a14.173 14.124-180 1 0 24.45 0 14.17 14.12-180 1 0-24.45 0Z" class="st2" id="shape79-22"/>
    <path d="M0 588.19a14.219 14.17-180 0 0 24.63 0 14.219 14.17-180 0 0-24.63 0Z" class="st2" transform="translate(1.86 -14.18)" id="shape80-24"/>
  </g>
  <g id="group81-26" transform="translate(1002.49 -354.331)">
    <path d="M1.95 574.01a14.173 14.124-180 1 0 24.45 0 14.17 14.12-180 1 0-24.45 0Z" class="st2" id="shape82-27"/>
    <path d="M0 588.19a14.219 14.17-180 0 0 24.63 0 14.219 14.17-180 0 0-24.63 0Z" class="st2" transform="translate(1.86 -14.18)" id="shape83-29"/>
  </g>
  <g id="group84-31" transform="translate(1151.85 -354.331)">
    <path d="M1.95 574.01a14.173 14.124-180 1 0 24.45 0 14.17 14.12-180 1 0-24.45 0Z" class="st2" id="shape85-32"/>
    <path d="M0 588.19a14.219 14.17-180 0 0 24.63 0 14.219 14.17-180 0 0-24.63 0Z" class="st2" transform="translate(1.86 -14.18)" id="shape86-34"/>
  </g>
  <g id="group87-36" transform="translate(1312.56 -354.331)">
    <path d="M1.95 574.01a14.173 14.124-180 1 0 24.45 0 14.17 14.12-180 1 0-24.45 0Z" class="st2" id="shape88-37"/>
    <path d="M0 588.19a14.219 14.17-180 0 0 24.63 0 14.219 14.17-180 0 0-24.63 0Z" class="st2" transform="translate(1.86 -14.18)" id="shape89-39"/>
  </g>
  <g id="group90-41" transform="translate(1577.48 -353.57)">
    <path d="M1.95 574.01a14.173 14.124-180 1 0 24.45 0 14.17 14.12-180 1 0-24.45 0Z" class="st2" id="shape91-42"/>
    <path d="M0 588.19a14.219 14.17-180 0 0 24.63 0 14.219 14.17-180 0 0-24.63 0Z" class="st2" transform="translate(1.86 -14.18)" id="shape92-44"/>
  </g>
  <g id="group93-46" transform="translate(1805.74 -354.331)">
    <path d="M1.95 574.01a14.173 14.124-180 1 0 24.45 0 14.17 14.12-180 1 0-24.45 0Z" class="st2" id="shape94-47"/>
    <path d="M0 588.19a14.219 14.17-180 0 0 24.63 0 14.219 14.17-180 0 0-24.63 0Z" class="st2" transform="translate(1.86 -14.18)" id="shape95-49"/>
  </g>
  <g id="shape150-51" transform="translate(571.158 -365.591)">
    <desc>
      5TA 1250kVA
    </desc>
    <path class="st3" d="M0 575.276h57.575v20H0z"/>
    <text x="18.21" y="581.08" class="st4">5TA <tspan x="4.1" dy="1.2em" class="st5">1250kVA</tspan></text>
  </g>
  <path d="M0 595.28h206.52" class="st6" transform="translate(552.351 -262.018)" id="shape151-55"/>
  <path d="M7.09 595.28v-29.79" class="st6" transform="translate(561.543 -183.804)" id="shape154-58"/>
  <path d="M0 595.28h115.65" class="st6" transform="translate(824.477 -262.018)" id="shape159-61"/>
  <g id="shape167-64" transform="translate(803.178 -365.591)">
    <desc>
      6TA 630kVA
    </desc>
    <path class="st3" d="M0 575.276h57.575v20H0z"/>
    <text x="18.21" y="581.08" class="st4">6TA <tspan x="7.62" dy="1.2em" class="st5">630kVA</tspan></text>
  </g>
  <g id="shape168-68" transform="translate(950.583 -365.591)">
    <desc>
      9TA 200kVA
    </desc>
    <path class="st3" d="M0 575.276h57.575v20H0z"/>
    <text x="18.21" y="581.08" class="st4">9TA <tspan x="7.62" dy="1.2em" class="st5">200kVA</tspan></text>
  </g>
  <g id="shape169-72" transform="translate(698.74 -481.89)">
    <desc>
      10kV
    </desc>
    <path class="st3" d="M0 575.276h152v20H0z"/>
    <text x="51.81" y="592.48" style="fill:#000;font-family:宋体;font-size:1.99999em;font-weight:700">10kV</text>
  </g>
  <g id="shape172-75" transform="translate(1096.02 -365.591)">
    <desc>
      1TA 1250kVA
    </desc>
    <path class="st3" d="M0 575.276h57.575v20H0z"/>
    <text x="18.21" y="581.08" class="st4">1TA <tspan x="4.1" dy="1.2em" class="st5">1250kVA</tspan></text>
  </g>
  <g id="shape173-79" transform="translate(1257.61 -365.591)">
    <desc>
      3TA 1250kVA
    </desc>
    <path class="st3" d="M0 575.276h57.575v20H0z"/>
    <text x="18.21" y="581.08" class="st4">3TA <tspan x="4.1" dy="1.2em" class="st5">1250kVA</tspan></text>
  </g>
  <g id="shape174-83" transform="translate(1516.28 -364.83)">
    <desc>
      2TA 1250kVA
    </desc>
    <path class="st3" d="M0 575.276h57.575v20H0z"/>
    <text x="18.21" y="581.08" class="st4">2TA <tspan x="4.1" dy="1.2em" class="st5">1250kVA</tspan></text>
  </g>
  <g id="shape175-87" transform="translate(1745.05 -365.591)">
    <desc>
      4TA 1250kVA
    </desc>
    <path class="st3" d="M0 575.276h57.575v20H0z"/>
    <text x="18.21" y="581.08" class="st4">4TA <tspan x="4.1" dy="1.2em" class="st5">1250kVA</tspan></text>
  </g>
  <path d="M0 595.28h99.62" class="st6" transform="translate(1271.54 -261.869)" id="shape179-91"/>
  <path d="M0 595.28h95.84" class="st6" transform="translate(1765.11 -260.787)" id="shape185-94"/>
  <path d="M7.09 595.28v-19.85" class="st6" transform="translate(638.906 -396.85)" id="shape190-97"/>
  <path d="m7.08 595.28.01-18.57" class="st6" transform="translate(873.518 -396.85)" id="shape191-100"/>
  <path d="m-7.07 595.28-.03-19.42" class="st6" transform="translate(1023.76 -396.85)" id="shape192-103"/>
  <path d="m-7.07 595.28-.03-19.42" class="st6" transform="translate(1173.1 -396.85)" id="shape193-106"/>
  <path d="m-7.07 595.28-.03-19.42" class="st6" transform="translate(1333.81 -396.85)" id="shape194-109"/>
  <path d="m-7.07 595.28-.03-19.42" class="st6" transform="translate(1598.73 -396.09)" id="shape195-112"/>
  <path d="m-7.07 595.28-.03-19.42" class="st6" transform="translate(1826.99 -396.85)" id="shape196-115"/>
  <g id="shape200-118" transform="translate(585.354 -539.575)">
    <desc>
      功率总加
    </desc>
    <path class="st8" d="M0 561.26h311.811v34.016H0z"/>
    <text x="4" y="583.67" style="fill:#000;font-family:微软雅黑;font-size:1.5em;font-weight:700">功率总加：</text>
  </g>
  <g id="shape203-121" transform="translate(882.992 -8.504)">
    <desc>
      能源机房
    </desc>
    <path class="st3" d="M0 561.26h154.205v34.016H0z"/>
    <text x="4" y="583.67" class="st10">能源机房</text>
  </g>
  <g id="shape204-124" transform="translate(1384.72 -8.504)">
    <desc>
      语音中心
    </desc>
    <path class="st3" d="M0 561.26h154.205v34.016H0z"/>
    <text x="4" y="583.67" class="st11">语音中心</text>
  </g>
  <path d="M7.09 595.28v-46.41" class="st6" transform="translate(833.392 -475.795)" id="shape206-127"/>
  <path d="m-7.04 595.28-.09-35.44" class="st6" transform="translate(847.386 -417.685)" id="shape209-130"/>
  <path class="st12" id="meter3" transform="translate(1693.56 -453.118)" d="M0 572.598h11.622v22.677H0z"/>
  <path d="M7.09 595.28v-45.74" class="st6" transform="translate(1692.29 -476.467)" id="shape211-135"/>
  <path d="M7.09 595.28v-34.54" class="st6" transform="translate(1692.15 -417.685)" id="shape212-138"/>
  <path d="M7.09 595.28v-46.41" class="st6" transform="translate(1221.96 -475.795)" id="shape214-141"/>
  <path d="m7.02 595.28.13-35.44" class="st6" transform="translate(1221.89 -417.685)" id="shape215-144"/>
  <g id="shape216-147" transform="translate(1563.31 -539.575)">
    <desc>
      语音中心功率
    </desc>
    <path class="st8" d="M0 561.26h311.811v34.016H0z"/>
    <text x="4" y="583.67" class="st11">语音中心功率：</text>
  </g>
  <g id="shape217-150" transform="translate(1067.24 -539.575)">
    <desc>
      能源机房功率
    </desc>
    <path class="st8" d="M0 561.26h311.811v34.016H0z"/>
    <text x="4" y="583.67" class="st10">能源机房功率：</text>
  </g>
  <path d="M7.09 595.28v-33.25" class="st6" transform="translate(638.395 -319.971)" id="shape221-153"/>
  <path d="m-7.05 595.28-.07-33.57" class="st6" transform="translate(652.6 -263.723)" id="shape222-156"/>
  <path d="M7.09 595.28v-33.25" class="st6" transform="translate(873.668 -319.768)" id="shape224-159"/>
  <path d="m-7.05 595.28-.07-33.57" class="st6" transform="translate(887.873 -263.521)" id="shape225-162"/>
  <path d="M7.09 595.28V480.14" class="st6" transform="translate(1009.57 -238.11)" id="shape227-165"/>
  <path d="M7.09 595.28v-33.57" class="st6" transform="translate(1009.57 -181.865)" id="shape228-168"/>
  <path d="M7.09 595.28v-34.23" class="st6" transform="translate(1319.41 -319.768)" id="shape230-171"/>
  <path d="m7 595.28.17-33.66" class="st6" transform="translate(1319.56 -263.436)" id="shape231-174"/>
  <path d="M7.09 595.28v-33.34" class="st6" transform="translate(1158.7 -319.768)" id="shape233-177"/>
  <path d="M7.09 595.28v-34.33" class="st6" transform="translate(1158.94 -262.764)" id="shape234-180"/>
  <path d="M7.09 595.28v-34.57" class="st6" transform="translate(1584.57 -319.007)" id="shape236-183"/>
  <path d="M7.09 595.28v-35.12" class="st6" transform="translate(1584.81 -261.21)" id="shape237-186"/>
  <path d="M7.09 595.28v-34.57" class="st6" transform="translate(1812.83 -319.768)" id="shape239-189"/>
  <path d="m-7.08 595.28-.02-35.6" class="st6" transform="translate(1827.01 -261.496)" id="shape240-192"/>
  <path d="M0 595.28h-45.35V561.4" class="st6" transform="translate(1347.87 -487.701)" id="shape245-195"/>
  <path d="M0 595.28h51.02V561.4" class="st6" transform="translate(1370.55 -487.701)" id="shape246-198"/>
  <path style="fill:#00b050;stroke:none;stroke-linecap:round;stroke-linejoin:round;stroke-width:.75" id="shape244-201" transform="rotate(90 920.693 1022.457)" d="M0 572.598h11.622v22.677H0z"/>
  <path class="st12" id="meter2" transform="translate(1223.23 -453.118)" d="M0 572.598h11.622v22.677H0z"/>
  <path class="st12" id="meter1" transform="translate(834.662 -453.118)" d="M0 572.598h11.622v22.677H0z"/>
  <path class="st12" id="meter11" transform="translate(639.665 -297.294)" d="M0 572.598h11.622v22.677H0z"/>
  <path class="st12" id="meter12" transform="translate(874.938 -297.091)" d="M0 572.598h11.622v22.677H0z"/>
  <g id="shape146-211" transform="translate(557.008 -51.993)">
    <desc>
      离心式冷水机组L1
    </desc>
    <path class="st14" d="M0 463.465h22.677v131.811H0z"/>
    <path class="st15" d="M5.292 471.77h12.094v115.2H5.292z"/>
    <text x="5.32" y="482.57" class="st16">离<tspan x="5.32" dy="1.2em" class="st5">心</tspan><tspan x="5.32" dy="1.2em" class="st5">式</tspan><tspan x="5.32" dy="1.2em" class="st5">冷</tspan><tspan x="5.32" dy="1.2em" class="st5">水</tspan><tspan x="5.32" dy="1.2em" class="st5">机</tspan><tspan x="5.32" dy="1.2em" class="st5">组</tspan><tspan x="5.29" dy="1.2em" class="st5">L1</tspan></text>
  </g>
  <g id="shape164-222" transform="translate(919.843 -51.993)">
    <desc>
      空调用热泵机组
    </desc>
    <path class="st14" d="M0 463.465h22.677v131.811H0z"/>
    <path class="st15" d="M5.315 478.97h12.047v100.8H5.315z"/>
    <text x="5.32" y="489.77" class="st16">空<tspan x="5.32" dy="1.2em" class="st5">调</tspan><tspan x="5.32" dy="1.2em" class="st5">用</tspan><tspan x="5.32" dy="1.2em" class="st5">热</tspan><tspan x="5.32" dy="1.2em" class="st5">泵</tspan><tspan x="5.32" dy="1.2em" class="st5">机</tspan><tspan x="5.32" dy="1.2em" class="st5">组</tspan></text>
  </g>
  <g id="shape170-232" transform="translate(1005.32 -50.763)">
    <desc>
      排污泵
    </desc>
    <path class="st14" d="M0 463.465h22.677v131.811H0z"/>
    <path class="st15" d="M5.315 507.77h12.047v43.2H5.315z"/>
    <text x="5.32" y="518.57" class="st16">排<tspan x="5.32" dy="1.2em" class="st5">污</tspan><tspan x="5.32" dy="1.2em" class="st5">泵</tspan></text>
  </g>
  <path class="st12" id="meter13" transform="translate(1010.85 -215.433)" d="M0 572.598h11.622v22.677H0z"/>
  <path class="st12" id="meter21" transform="translate(1160.21 -297.091)" d="M0 572.598h11.622v22.677H0z"/>
  <path class="st12" id="meter22" transform="translate(1320.92 -297.091)" d="M0 572.598h11.622v22.677H0z"/>
  <path class="st12" id="meter32" transform="translate(1814.11 -297.091)" d="M0 572.598h11.622v22.677H0z"/>
  <path class="st12" id="meter31" transform="translate(1585.84 -296.33)" d="M0 572.598h11.622v22.677H0z"/>
  <path d="M0 595.28h108.53" class="st6" transform="translate(1103.08 -262.466)" id="shape247-248"/>
  <path d="M0 595.28h222.72" class="st6" transform="translate(1477.26 -260.787)" id="shape254-251"/>
  <path d="M-7.09 595.28v-25.69" class="st6" transform="translate(576 -235.276)" id="shape260-254"/>
  <path class="st12" id="meter111" transform="translate(563.102 -212.598)" d="M0 572.598h11.622v22.677H0z"/>
  <path d="M7.09 595.28v-29.79" class="st6" transform="translate(651.662 -184.252)" id="shape261-259"/>
  <path d="M-7.09 595.28v-25.69" class="st6" transform="translate(666.118 -235.723)" id="shape262-262"/>
  <path class="st12" id="meter112" transform="translate(653.221 -213.046)" d="M0 572.598h11.622v22.677H0z"/>
  <g id="shape157-267" transform="translate(647.693 -51.71)">
    <desc>
      卫生热水用热泵机组
    </desc>
    <path class="st14" d="M0 463.465h22.677v131.811H0z"/>
    <path class="st15" d="M5.315 464.57h12.047v129.6H5.315z"/>
    <text x="5.32" y="475.37" class="st16">卫<tspan x="5.32" dy="1.2em" class="st5">生</tspan><tspan x="5.32" dy="1.2em" class="st5">热</tspan><tspan x="5.32" dy="1.2em" class="st5">水</tspan><tspan x="5.32" dy="1.2em" class="st5">用</tspan><tspan x="5.32" dy="1.2em" class="st5">热</tspan><tspan x="5.32" dy="1.2em" class="st5">泵</tspan><tspan x="5.32" dy="1.2em" class="st5">机</tspan><tspan x="5.32" dy="1.2em" class="st5">组</tspan></text>
  </g>
  <path d="M7.09 595.28v-31.31" class="st6" transform="translate(737.008 -183.804)" id="shape264-279"/>
  <path d="M7.09 595.28v-26.26" class="st6" transform="translate(737.008 -235.723)" id="shape265-282"/>
  <path class="st12" id="meter113" transform="translate(738.284 -213.046)" d="M0 572.598h11.622v22.677H0z"/>
  <g id="shape152-287" transform="translate(732.756 -51.993)">
    <desc>
      水泵
    </desc>
    <path class="st14" d="M0 463.465h22.677v131.811H0z"/>
    <path class="st15" d="M5.315 514.97h12.047v28.8H5.315z"/>
    <text x="5.32" y="525.77" class="st16">水<tspan x="5.32" dy="1.2em" class="st5">泵</tspan></text>
  </g>
  <path d="M7.09 595.28v-31.31" class="st6" transform="translate(830.551 -184.033)" id="shape267-292"/>
  <path d="M-7.09 595.28v-25.85" class="st6" transform="translate(844.724 -235.952)" id="shape268-295"/>
  <path class="st12" id="meter121" transform="translate(831.827 -213.275)" d="M0 572.598h11.622v22.677H0z"/>
  <g id="shape163-300" transform="translate(826.299 -51.993)">
    <desc>
      离心式冷水机组L2
    </desc>
    <path class="st14" d="M0 463.465h22.677v131.811H0z"/>
    <path class="st15" d="M5.292 471.77h12.094v115.2H5.292z"/>
    <text x="5.32" y="482.57" class="st16">离<tspan x="5.32" dy="1.2em" class="st5">心</tspan><tspan x="5.32" dy="1.2em" class="st5">式</tspan><tspan x="5.32" dy="1.2em" class="st5">冷</tspan><tspan x="5.32" dy="1.2em" class="st5">水</tspan><tspan x="5.32" dy="1.2em" class="st5">机</tspan><tspan x="5.32" dy="1.2em" class="st5">组</tspan><tspan x="5.29" dy="1.2em" class="st5">L2</tspan></text>
  </g>
  <path d="M7.09 595.28v-31.31" class="st6" transform="translate(923.807 -184.033)" id="shape270-311"/>
  <path d="M7.09 595.28V569.5" class="st6" transform="translate(923.807 -235.952)" id="shape271-314"/>
  <path class="st12" id="122" transform="translate(925.082 -213.275)" d="M0 572.598h11.622v22.677H0z"/>
  <path d="M7.09 595.28v-30.94" class="st6" transform="translate(1111.18 -181.995)" id="shape273-319"/>
  <path d="M-7.09 595.28v-25.34" class="st6" transform="translate(1125.35 -235.374)" id="shape274-322"/>
  <path class="st12" id="meter211" transform="translate(1112.46 -212.696)" d="M0 572.598h11.622v22.677H0z"/>
  <g id="shape171-327" transform="translate(1106.93 -50.184)">
    <desc>
      一二三区办公负荷
    </desc>
    <path class="st17" d="M0 463.465h22.677v131.811H0z"/>
    <path class="st18" d="M5.315 471.77h12.047v115.2H5.315z"/>
    <text x="5.32" y="482.57" class="st16">一<tspan x="5.32" dy="1.2em" class="st5">二</tspan><tspan x="5.32" dy="1.2em" class="st5">三</tspan><tspan x="5.32" dy="1.2em" class="st5">区</tspan><tspan x="5.32" dy="1.2em" class="st5">办</tspan><tspan x="5.32" dy="1.2em" class="st5">公</tspan><tspan x="5.32" dy="1.2em" class="st5">负</tspan><tspan x="5.32" dy="1.2em" class="st5">荷</tspan></text>
  </g>
  <path d="M7.09 595.28v-30.94" class="st6" transform="translate(1190.49 -182.91)" id="shape276-338"/>
  <path d="M-7.09 595.28v-25.34" class="st6" transform="translate(1204.67 -236.288)" id="shape277-341"/>
  <path class="st12" id="meter212" transform="translate(1191.77 -213.611)" d="M0 572.598h11.622v22.677H0z"/>
  <g id="shape250-346" transform="translate(1186.3 -50.184)">
    <desc>
      屋顶光伏
    </desc>
    <path class="st17" d="M0 463.465h22.677v131.811H0z"/>
    <path class="st18" d="M5.315 500.57h12.047v57.6H5.315z"/>
    <text x="5.32" y="511.37" class="st16">屋<tspan x="5.32" dy="1.2em" class="st5">顶</tspan><tspan x="5.32" dy="1.2em" class="st5">光</tspan><tspan x="5.32" dy="1.2em" class="st5">伏</tspan></text>
  </g>
  <path d="M7.09 595.28v-30.94" class="st6" transform="translate(1272.76 -181.966)" id="shape279-353"/>
  <path d="M-7.09 595.28v-25.34" class="st6" transform="translate(1286.93 -235.344)" id="shape280-356"/>
  <path class="st12" id="meter221" transform="translate(1274.03 -212.667)" d="M0 572.598h11.622v22.677H0z"/>
  <g id="shape180-361" transform="translate(1268.5 -51.844)">
    <desc>
      数据中心精密空调
    </desc>
    <path class="st17" d="M0 463.465h22.677v131.811H0z"/>
    <path class="st18" d="M5.315 471.77h12.047v115.2H5.315z"/>
    <text x="5.32" y="482.57" class="st16">数<tspan x="5.32" dy="1.2em" class="st5">据</tspan><tspan x="5.32" dy="1.2em" class="st5">中</tspan><tspan x="5.32" dy="1.2em" class="st5">心</tspan><tspan x="5.32" dy="1.2em" class="st5">精</tspan><tspan x="5.32" dy="1.2em" class="st5">密</tspan><tspan x="5.32" dy="1.2em" class="st5">空</tspan><tspan x="5.32" dy="1.2em" class="st5">调</tspan></text>
  </g>
  <path d="M7.09 595.28V566.9" class="st6" transform="translate(1352.13 -183.655)" id="shape282-372"/>
  <path d="M7.09 595.28V569.9" class="st6" transform="translate(1352.13 -235.344)" id="shape283-375"/>
  <path class="st12" id="meter222" transform="translate(1353.4 -212.667)" d="M0 572.598h11.622v22.677H0z"/>
  <g id="shape181-380" transform="translate(1347.87 -51.844)">
    <desc>
      数据中心U P S
    </desc>
    <path class="st17" d="M0 463.465h22.677v131.811H0z"/>
    <path class="st18" d="M5.315 478.97h12.047v100.801H5.315z"/>
    <text x="5.32" y="489.77" class="st16">数<tspan x="5.32" dy="1.2em" class="st5">据</tspan><tspan x="5.32" dy="1.2em" class="st5">中</tspan><tspan x="5.32" dy="1.2em" class="st5">心</tspan><tspan x="8.32" dy="1.2em" class="st5">U</tspan><tspan x="8.32" dy="1.2em" class="st5">P</tspan><tspan x="8.32" dy="1.2em" class="st5">S</tspan></text>
  </g>
  <path d="M7.09 595.28v-30.94" class="st6" transform="translate(1433.2 -143.317)" id="shape285-390"/>
  <path d="M7.06 595.28v-10.16h.06v-12.11" class="st6" transform="translate(1433.23 -182.965)" id="shape286-393"/>
  <path class="st12" id="meter3111" transform="translate(1434.47 -160.288)" d="M0 572.598h11.622v22.677H0z"/>
  <g id="shape253-398" transform="translate(1430.08 -51.471)">
    <desc>
      充电桩
    </desc>
    <path class="st17" d="M0 502.463h22.677v92.812H0z"/>
    <path class="st18" d="M5.315 527.269h12.047v43.2H5.315z"/>
    <text x="5.32" y="538.07" class="st16">充<tspan x="5.32" dy="1.2em" class="st5">电</tspan><tspan x="5.32" dy="1.2em" class="st5">桩</tspan></text>
  </g>
  <path d="M7.09 595.28v-30.94" class="st6" transform="translate(1510.11 -143.191)" id="shape419-404"/>
  <path d="M7.09 595.28v-21.26" class="st6" transform="translate(1510.11 -182.839)" id="shape420-407"/>
  <path class="st12" id="meter3112" transform="translate(1511.38 -160.162)" d="M0 572.598h11.622v22.677H0z"/>
  <g id="shape252-412" transform="translate(1506.61 -51.345)">
    <desc>
      车棚光伏
    </desc>
    <path class="st17" d="M0 502.463h22.677v92.812H0z"/>
    <path class="st18" d="M5.315 520.069h12.047v57.6H5.315z"/>
    <text x="5.32" y="530.87" class="st16">车<tspan x="5.32" dy="1.2em" class="st5">棚</tspan><tspan x="5.32" dy="1.2em" class="st5">光</tspan><tspan x="5.32" dy="1.2em" class="st5">伏</tspan></text>
  </g>
  <path d="M7.09 595.28v-30.94" class="st6" transform="translate(1586.83 -143.504)" id="shape422-419"/>
  <path d="M7.09 595.28V573.2" class="st6" transform="translate(1586.83 -183.152)" id="shape423-422"/>
  <path class="st12" id="meter3113" transform="translate(1588.1 -160.475)" d="M0 572.598h11.622v22.677H0z"/>
  <path d="M7.09 595.28v-30.94" class="st6" transform="translate(1672.61 -181.641)" id="shape425-427"/>
  <path d="M-7.09 595.28v-25.34" class="st6" transform="translate(1686.79 -235.019)" id="shape426-430"/>
  <path class="st12" id="meter312" transform="translate(1673.89 -212.342)" d="M0 572.598h11.622v22.677H0z"/>
  <g id="shape251-435" transform="translate(1583.15 -51.471)">
    <desc>
      储能
    </desc>
    <path class="st17" d="M0 502.463h22.677v92.812H0z"/>
    <path class="st15" d="M5.315 534.47h12.047v28.8H5.315z"/>
    <text x="5.32" y="545.27" class="st16">储<tspan x="5.32" dy="1.2em" class="st5">能</tspan></text>
  </g>
  <g id="shape177-440" transform="translate(1668.19 -51.471)">
    <desc>
      四五区办公负荷
    </desc>
    <path class="st17" d="M0 463.465h22.677v131.811H0z"/>
    <path class="st18" d="M5.315 478.97h12.047v100.8H5.315z"/>
    <text x="5.32" y="489.77" class="st16">四<tspan x="5.32" dy="1.2em" class="st5">五</tspan><tspan x="5.32" dy="1.2em" class="st5">区</tspan><tspan x="5.32" dy="1.2em" class="st5">办</tspan><tspan x="5.32" dy="1.2em" class="st5">公</tspan><tspan x="5.32" dy="1.2em" class="st5">负</tspan><tspan x="5.32" dy="1.2em" class="st5">荷</tspan></text>
  </g>
  <path d="M7.09 595.28v-30.94" class="st6" transform="translate(1765.84 -181.744)" id="shape428-450"/>
  <path d="M7.09 595.28v-25.34" class="st6" transform="translate(1765.84 -235.122)" id="shape429-453"/>
  <path class="st12" id="meter321" transform="translate(1767.12 -212.445)" d="M0 572.598h11.622v22.677H0z"/>
  <path d="M7.09 595.28v-30.94" class="st6" transform="translate(1840.11 -181.417)" id="shape431-458"/>
  <path d="M-7.09 595.28v-25.34" class="st6" transform="translate(1854.28 -234.796)" id="shape432-461"/>
  <path class="st12" id="meter322" transform="translate(1841.39 -212.118)" d="M0 572.598h11.622v22.677H0z"/>
  <g id="shape186-466" transform="translate(1761.73 -51.471)">
    <desc>
      照明
    </desc>
    <path class="st17" d="M0 463.465h22.677v131.811H0z"/>
    <path class="st15" d="M5.315 514.97h12.047v28.8H5.315z"/>
    <text x="5.32" y="525.77" class="st16">照<tspan x="5.32" dy="1.2em" class="st5">明</tspan></text>
  </g>
  <g id="shape187-471" transform="translate(1835.72 -51.471)">
    <desc>
      电梯
    </desc>
    <path class="st17" d="M0 463.465h22.677v131.811H0z"/>
    <path class="st18" d="M5.315 514.97h12.047v28.8H5.315z"/>
    <text x="5.32" y="525.77" class="st16">电<tspan x="5.32" dy="1.2em" class="st5">梯</tspan></text>
  </g>
  <path d="M0 595.28h174.13" class="st6" transform="translate(1431.09 -205.232)" id="shape435-476"/>
  <path d="M7.09 595.28V581" class="st6" transform="translate(1509.87 -246.278)" id="shape437-479"/>
  <path d="M7.09 595.28V578.2" class="st6" transform="translate(1510.12 -206.236)" id="shape438-482"/>
  <path class="st12" id="meter311" transform="translate(1511.15 -223.601)" d="M0 572.598h11.622v22.677H0z"/>
  <path d="M0 595.28h26.87" class="st6" transform="translate(1003.4 -262.205)" id="shape440-487"/>
</svg>
